{
  "accessors": [
    {
      "bufferView": 2,
      "componentType": 5126,
      "count": 4707,
      "max": [
        0.3509199917316437,
        0.3101879954338074,
        2.0786969661712646
      ],
      "min": [
        -0.34672799706459045,
        -0.3959220051765442,
        0.022657999768853188
      ],
      "type": "VEC3"
    },
    {
      "bufferView": 2,
      "byteOffset": 56484,
      "componentType": 5126,
      "count": 4707,
      "max": [
        1.0,
        0.9978687763214111,
        0.9991016387939453
      ],
      "min": [
        -1.0,
        -0.9991188645362854,
        -0.9999001026153564
      ],
      "type": "VEC3"
    },
    {
      "bufferView": 1,
      "componentType": 5126,
      "count": 4707,
      "max": [
        0.6659020185470581,
        0.9129480123519897
      ],
      "min": [
        0.22662900388240814,
        0.2577899992465973
      ],
      "type": "VEC2"
    },
    {
      "bufferView": 0,
      "componentType": 5125,
      "count": 8313,
      "type": "SCALAR"
    },
    {
      "bufferView": 2,
      "byteOffset": 112968,
      "componentType": 5126,
      "count": 3284,
      "max": [
        1.0144239664077759,
        0.1903890073299408,
        2.0269689559936523
      ],
      "min": [
        -1.0051939487457275,
        -0.3032299876213074,
        1.1181219816207886
      ],
      "type": "VEC3"
    },
    {
      "bufferView": 2,
      "byteOffset": 152376,
      "componentType": 5126,
      "count": 3284,
      "max": [
        0.9983333349227905,
        0.9996852278709412,
        0.9999251365661621
      ],
      "min": [
        -0.9997468590736389,
        -0.9999954700469971,
        -0.9981186389923096
      ],
      "type": "VEC3"
    },
    {
      "bufferView": 1,
      "byteOffset": 37656,
      "componentType": 5126,
      "count": 3284,
      "max": [
        0.5977619886398315,
        0.4025219976902008
      ],
      "min": [
        0.5892350077629089,
        0.3937680125236511
      ],
      "type": "VEC2"
    },
    {
      "bufferView": 0,
      "byteOffset": 33252,
      "componentType": 5125,
      "count": 6381,
      "type": "SCALAR"
    }
  ],
  "asset": {
    "extras": {
      "author": "wombleoni (https://sketchfab.com/wombleoni)",
      "license": "CC-BY-4.0 (http://creativecommons.org/licenses/by/4.0/)",
      "source": "https://sketchfab.com/3d-models/homer-0d9ff854451645129d8c872a897bd02d",
      "title": "Homer"
    },
    "generator": "Sketchfab-12.66.0",
    "version": "2.0"
  },
  "bufferViews": [
    {
      "buffer": 0,
      "byteLength": 58776,
      "name": "floatBufferViews",
      "target": 34963
    },
    {
      "buffer": 0,
      "byteLength": 63928,
      "byteOffset": 58776,
      "byteStride": 8,
      "name": "floatBufferViews",
      "target": 34962
    },
    {
      "buffer": 0,
      "byteLength": 191784,
      "byteOffset": 122704,
      "byteStride": 12,
      "name": "floatBufferViews",
      "target": 34962
    }
  ],
  "buffers": [
    {
      "byteLength": 314488,
      "uri": "scene.bin"
    }
  ],
  "images": [
    {
      "uri": "textures/homer_baseColor.png"
    }
  ],
  "materials": [
    {
      "doubleSided": true,
      "name": "homer",
      "pbrMetallicRoughness": {
        "baseColorTexture": {
          "index": 0
        },
        "metallicFactor": 0.0
      }
    }
  ],
  "meshes": [
    {
      "name": "Object_0",
      "primitives": [
        {
          "attributes": {
            "NORMAL": 1,
            "POSITION": 0,
            "TEXCOORD_0": 2
          },
          "indices": 3,
          "material": 0,
          "mode": 4
        }
      ]
    },
    {
      "name": "Object_1",
      "primitives": [
        {
          "attributes": {
            "NORMAL": 5,
            "POSITION": 4,
            "TEXCOORD_0": 6
          },
          "indices": 7,
          "material": 0,
          "mode": 4
        }
      ]
    }
  ],
  "nodes": [
    {
      "children": [
        1
      ],
      "matrix": [
        1.0,
        0.0,
        0.0,
        0.0,
        0.0,
        2.220446049250313e-16,
        -1.0,
        0.0,
        0.0,
        1.0,
        2.220446049250313e-16,
        0.0,
        0.0,
        0.0,
        0.0,
        1.0
      ],
      "name": "Sketchfab_model"
    },
    {
      "children": [
        2,
        3
      ],
      "name": "homer.obj.cleaner.materialmerger.gles"
    },
    {
      "mesh": 0,
      "name": "Object_2"
    },
    {
      "mesh": 1,
      "name": "Object_3"
    }
  ],
  "samplers": [
    {
      "magFilter": 9729,
      "minFilter": 9987,
      "wrapS": 10497,
      "wrapT": 10497
    }
  ],
  "scene": 0,
  "scenes": [
    {
      "name": "Sketchfab_Scene",
      "nodes": [
        0
      ]
    }
  ],
  "textures": [
    {
      "sampler": 0,
      "source": 0
    }
  ]
}
